<mxfile host="app.diagrams.net" modified="2021-10-19T08:03:16.124Z" agent="5.0 (Windows NT 6.1; WOW64) AppleWebKit/537.36 (KHTML, like Gecko) Chrome/83.0.4103.116 Safari/537.36" etag="XBIWPKYG3J_lcSa8EbGv" version="15.5.5" type="github">
  <diagram id="bh3-M8ebys-ZIm4aBCHa" name="Page-1">
    <mxGraphModel dx="1038" dy="588" grid="1" gridSize="10" guides="1" tooltips="1" connect="1" arrows="1" fold="1" page="1" pageScale="1" pageWidth="827" pageHeight="1169" math="0" shadow="0">
      <root>
        <mxCell id="0" />
        <mxCell id="1" parent="0" />
        <mxCell id="AsReBXEsJwNe9x3TPqY4-5" value="积分查询" style="rounded=0;whiteSpace=wrap;html=1;" vertex="1" parent="1">
          <mxGeometry x="40" y="200" width="120" height="60" as="geometry" />
        </mxCell>
        <mxCell id="AsReBXEsJwNe9x3TPqY4-6" value="积分录入" style="rounded=0;whiteSpace=wrap;html=1;" vertex="1" parent="1">
          <mxGeometry x="220" y="200" width="120" height="60" as="geometry" />
        </mxCell>
        <mxCell id="AsReBXEsJwNe9x3TPqY4-7" value="系统管理" style="rounded=0;whiteSpace=wrap;html=1;" vertex="1" parent="1">
          <mxGeometry x="400" y="200" width="120" height="60" as="geometry" />
        </mxCell>
        <mxCell id="AsReBXEsJwNe9x3TPqY4-8" value="系统维护" style="rounded=0;whiteSpace=wrap;html=1;" vertex="1" parent="1">
          <mxGeometry x="590" y="200" width="120" height="60" as="geometry" />
        </mxCell>
        <mxCell id="AsReBXEsJwNe9x3TPqY4-18" value="" style="edgeStyle=orthogonalEdgeStyle;rounded=0;orthogonalLoop=1;jettySize=auto;html=1;" edge="1" parent="1" source="AsReBXEsJwNe9x3TPqY4-10" target="AsReBXEsJwNe9x3TPqY4-5">
          <mxGeometry relative="1" as="geometry" />
        </mxCell>
        <mxCell id="AsReBXEsJwNe9x3TPqY4-10" value="普通用户" style="shape=umlActor;verticalLabelPosition=bottom;verticalAlign=top;html=1;outlineConnect=0;" vertex="1" parent="1">
          <mxGeometry x="85" y="60" width="30" height="60" as="geometry" />
        </mxCell>
        <mxCell id="AsReBXEsJwNe9x3TPqY4-17" value="" style="edgeStyle=orthogonalEdgeStyle;rounded=0;orthogonalLoop=1;jettySize=auto;html=1;" edge="1" parent="1" source="AsReBXEsJwNe9x3TPqY4-14" target="AsReBXEsJwNe9x3TPqY4-6">
          <mxGeometry relative="1" as="geometry" />
        </mxCell>
        <mxCell id="AsReBXEsJwNe9x3TPqY4-14" value="普通用户" style="shape=umlActor;verticalLabelPosition=bottom;verticalAlign=top;html=1;outlineConnect=0;" vertex="1" parent="1">
          <mxGeometry x="265" y="60" width="30" height="60" as="geometry" />
        </mxCell>
        <mxCell id="AsReBXEsJwNe9x3TPqY4-19" value="" style="edgeStyle=orthogonalEdgeStyle;rounded=0;orthogonalLoop=1;jettySize=auto;html=1;" edge="1" parent="1" source="AsReBXEsJwNe9x3TPqY4-15" target="AsReBXEsJwNe9x3TPqY4-7">
          <mxGeometry relative="1" as="geometry" />
        </mxCell>
        <mxCell id="AsReBXEsJwNe9x3TPqY4-15" value="普通用户" style="shape=umlActor;verticalLabelPosition=bottom;verticalAlign=top;html=1;outlineConnect=0;" vertex="1" parent="1">
          <mxGeometry x="445" y="60" width="30" height="60" as="geometry" />
        </mxCell>
        <mxCell id="AsReBXEsJwNe9x3TPqY4-20" value="" style="edgeStyle=orthogonalEdgeStyle;rounded=0;orthogonalLoop=1;jettySize=auto;html=1;" edge="1" parent="1" source="AsReBXEsJwNe9x3TPqY4-16" target="AsReBXEsJwNe9x3TPqY4-8">
          <mxGeometry relative="1" as="geometry" />
        </mxCell>
        <mxCell id="AsReBXEsJwNe9x3TPqY4-16" value="普通用户" style="shape=umlActor;verticalLabelPosition=bottom;verticalAlign=top;html=1;outlineConnect=0;" vertex="1" parent="1">
          <mxGeometry x="635" y="60" width="30" height="60" as="geometry" />
        </mxCell>
      </root>
    </mxGraphModel>
  </diagram>
</mxfile>
